<svg xmlns="http://www.w3.org/2000/svg" xmlns:xlink="http://www.w3.org/1999/xlink" width="38.26" height="43.865"
  viewBox="0 0 38.26 43.865">
  <defs>
    <filter id="Trazado_1217" x="0" y="0" width="37.657" height="43.865" filterUnits="userSpaceOnUse">
      <feOffset dx="-1" dy="2" input="SourceAlpha" />
      <feGaussianBlur stdDeviation="1" result="blur" />
      <feFlood flood-opacity="0.251" />
      <feComposite operator="in" in2="blur" />
      <feComposite in="SourceGraphic" />
    </filter>
    <filter id="Trazado_1218" x="0.5" y="3.5" width="37.76" height="37.76" filterUnits="userSpaceOnUse">
      <feOffset dy="3" input="SourceAlpha" />
      <feGaussianBlur stdDeviation="3" result="blur-2" />
      <feFlood flood-opacity="0.471" />
      <feComposite operator="in" in2="blur-2" />
      <feComposite in="SourceGraphic" />
    </filter>
  </defs>
  <g id="Grupo_594" data-name="Grupo 594" transform="translate(1606.937 -9268.938)">
    <g transform="matrix(1, 0, 0, 1, -1606.94, 9268.94)" filter="url(#Trazado_1217)">
      <path id="Trazado_1217-2" data-name="Trazado 1217"
        d="M589.814,6433.848l13.821-8.285v-17.257l-13.829-8.325-13.829,8.331v17.251Z"
        transform="translate(-569.98 -6396.98)" fill="#13aa52" stroke="#13aa52" strokeLinecap="round"
        strokeLinejoin="round" strokeWidth="4" />
    </g>
    <g transform="matrix(1, 0, 0, 1, -1606.94, 9268.94)" filter="url(#Trazado_1218)">
      <path id="Trazado_1218-2" data-name="Trazado 1218"
        d="M467.474,253.21h5.082l2.581,6.244,3.975,9.616,2.768-.82.944,2.851-6.036,1.869-3.849-9.354-5.837,8.328h-4.038l8.2-12.283-1.1-3.283h-2.692Z"
        transform="translate(-453.56 -243.71)" fill="#fff" />
    </g>
  </g>
</svg>