<svg width="22" height="20" viewBox="0 0 22 20" fill="none" xmlns="http://www.w3.org/2000/svg">
<path d="M21.3846 12.6885V16.7237V12.6885ZM21.3846 16.7237V17.9993C21.3832 18.4829 21.1903 18.9462 20.8482 19.288C20.5061 19.6298 20.0426 19.8223 19.5591 19.8234H2.00271C1.51917 19.8221 1.05577 19.6296 0.713714 19.2879C0.371657 18.9461 0.178746 18.4829 0.177124 17.9993V3.99838C0.178611 3.51476 0.371455 3.05139 0.713526 2.70951C1.0556 2.36763 1.51909 2.17504 2.00271 2.17383H19.5585C20.0422 2.17504 20.5056 2.36763 20.8477 2.70951C21.1898 3.05139 21.3826 3.51476 21.3841 3.99838V12.6885" fill="#E6F6ED"/>
<path d="M19.5592 19.9596H2.00333C1.48333 19.9593 0.984671 19.7528 0.616784 19.3852C0.248896 19.0177 0.0418293 18.5193 0.0410156 17.9993V3.99836C0.0416938 3.47827 0.248694 2.97971 0.616596 2.6121C0.984498 2.24449 1.48324 2.03787 2.00333 2.0376H19.5592C20.0791 2.03814 20.5776 2.24484 20.9454 2.61241C21.3132 2.97998 21.5201 3.47841 21.521 3.99836V16.7237H21.2485V3.99836C21.2485 3.55018 21.0705 3.12036 20.7536 2.80344C20.4367 2.48653 20.0068 2.30849 19.5586 2.30849H2.00333C1.55514 2.30849 1.12531 2.48653 0.808394 2.80344C0.491479 3.12036 0.313436 3.55018 0.313436 3.99836V17.9993C0.313436 18.4475 0.491479 18.8773 0.808394 19.1942C1.12531 19.5111 1.55514 19.6892 2.00333 19.6892H19.5592C20.0073 19.6892 20.4372 19.5111 20.7541 19.1942C21.071 18.8773 21.249 18.4475 21.249 17.9993V16.7237H21.5215V17.9993C21.5207 18.5192 21.3137 19.0176 20.9459 19.3851C20.5781 19.7526 20.0796 19.9592 19.5597 19.9596" fill="#116149"/>
<path d="M2.00326 2.35047C1.56629 2.35074 1.14727 2.52433 0.838144 2.83317C0.529015 3.14201 0.355022 3.56086 0.354344 3.99783V17.9988C0.355023 18.4357 0.529032 18.8545 0.838175 19.1633C1.14732 19.472 1.56634 19.6455 2.00326 19.6456H19.5591C19.9959 19.6454 20.4148 19.4718 20.7238 19.1631C21.0329 18.8543 21.2068 18.4356 21.2075 17.9988V3.99783C21.2069 3.56091 21.0331 3.14206 20.724 2.8332C20.415 2.52435 19.996 2.35074 19.5591 2.35047H2.00326ZM19.5591 20H2.00326C1.47248 19.9996 0.96353 19.7887 0.588071 19.4135C0.212611 19.0383 0.00130178 18.5296 0.000488281 17.9988V3.99783C0.00130153 3.46701 0.212595 2.95819 0.58804 2.58294C0.963484 2.20769 1.47244 1.99664 2.00326 1.99609H19.5591C20.0899 1.99664 20.5988 2.20769 20.9743 2.58294C21.3497 2.95819 21.561 3.46701 21.5619 3.99783V17.9988C21.561 18.5296 21.3497 19.0383 20.9743 19.4135C20.5988 19.7887 20.0899 19.9996 19.5591 20Z" fill="#116149"/>
<path d="M1.68176 8.16211H4.98369V10.785H1.68176V8.16211Z" fill="#5AE4A7"/>
<path d="M1.81785 10.6488H4.84684V8.29882H1.81785V10.6488ZM5.11977 10.9212H1.54797V8.02588H5.12234V10.9212" fill="#116149"/>
<path d="M1.85893 10.6073H4.8065V8.3393H1.85893V10.6073ZM4.98265 10.9617H1.68073C1.63373 10.9617 1.58867 10.943 1.55544 10.9098C1.52221 10.8766 1.50354 10.8315 1.50354 10.7845V8.16315C1.50354 8.11616 1.52221 8.07109 1.55544 8.03786C1.58867 8.00463 1.63373 7.98596 1.68073 7.98596H4.98265C5.02964 7.98596 5.07471 8.00463 5.10794 8.03786C5.14117 8.07109 5.15984 8.11616 5.15984 8.16315V10.7861C5.15984 10.833 5.14117 10.8781 5.10794 10.9113C5.07471 10.9446 5.02964 10.9632 4.98265 10.9632" fill="#116149"/>
<path d="M6.63464 8.16211H9.93709V10.785H6.63464V8.16211Z" fill="#5AE4A7"/>
<path d="M6.77132 10.6488H9.80083V8.29882H6.77132V10.6488ZM10.0738 10.9212H6.4989V8.02588H10.0738V10.9212Z" fill="#116149"/>
<path d="M6.81232 10.6073H9.7604V8.3393H6.81232V10.6073ZM9.93603 10.9617H6.63361C6.58662 10.9617 6.54155 10.943 6.50832 10.9098C6.47509 10.8766 6.45642 10.8315 6.45642 10.7845V8.16315C6.45642 8.11616 6.47509 8.07109 6.50832 8.03786C6.54155 8.00463 6.58662 7.98596 6.63361 7.98596H9.93603C9.98303 7.98596 10.0281 8.00463 10.0613 8.03786C10.0945 8.07109 10.1132 8.11616 10.1132 8.16315V10.7861C10.1132 10.833 10.0945 10.8781 10.0613 10.9113C10.0281 10.9446 9.98303 10.9632 9.93603 10.9632" fill="#116149"/>
<path d="M11.588 8.16211H14.8905V10.785H11.588V8.16211Z" fill="#5AE4A7"/>
<path d="M11.7237 10.6488H14.7517V8.29882H11.7222L11.7237 10.6488ZM15.0262 10.9212H11.4513V8.02588H15.0262V10.9212Z" fill="#116149"/>
<path d="M11.7647 10.6073H14.7112V8.3393H11.7636L11.7647 10.6073ZM14.8884 10.9617H11.5875C11.5405 10.9617 11.4954 10.943 11.4622 10.9098C11.4289 10.8766 11.4103 10.8315 11.4103 10.7845V8.16315C11.4103 8.11616 11.4289 8.07109 11.4622 8.03786C11.4954 8.00463 11.5405 7.98596 11.5875 7.98596H14.8899C14.9369 7.98596 14.982 8.00463 15.0152 8.03786C15.0484 8.07109 15.0671 8.11616 15.0671 8.16315V10.7861C15.0671 10.833 15.0484 10.8781 15.0152 10.9113C14.982 10.9446 14.9369 10.9632 14.8899 10.9632" fill="#116149"/>
<path d="M16.5415 8.16211H19.8413V10.785H16.5399V8.16211" fill="#5AE4A7"/>
<path d="M16.6782 10.6488H19.7067V8.29882H16.6782V10.6488ZM19.9796 10.9212H16.4058V8.02588H19.9796V10.9212Z" fill="#116149"/>
<path d="M16.7191 10.6073H19.6657V8.3393H16.7191V10.6073ZM19.8429 10.9617H16.5414C16.4944 10.9617 16.4494 10.943 16.4161 10.9098C16.3829 10.8766 16.3643 10.8315 16.3643 10.7845V8.16315C16.3643 8.11616 16.3829 8.07109 16.4161 8.03786C16.4494 8.00463 16.4944 7.98596 16.5414 7.98596H19.8429C19.8898 7.98596 19.9349 8.00463 19.9681 8.03786C20.0014 8.07109 20.02 8.11616 20.02 8.16315V10.7861C20.02 10.833 20.0014 10.8781 19.9681 10.9113C19.9349 10.9446 19.8898 10.9632 19.8429 10.9632" fill="#116149"/>
<path d="M17.3592 6.91828H0.177186C0.130194 6.91828 0.0851273 6.8996 0.0518993 6.86638C0.0186713 6.83315 0 6.78808 0 6.74109C0 6.6941 0.0186713 6.64903 0.0518993 6.6158C0.0851273 6.58258 0.130194 6.5639 0.177186 6.5639H17.3592C17.4062 6.5639 17.4513 6.58258 17.4845 6.6158C17.5177 6.64903 17.5364 6.6941 17.5364 6.74109C17.5364 6.78808 17.5177 6.83315 17.4845 6.86638C17.4513 6.8996 17.4062 6.91828 17.3592 6.91828ZM21.2367 6.96436H21.2336L19.3036 6.91828C19.2803 6.91774 19.2574 6.91263 19.2362 6.90323C19.2149 6.89382 19.1957 6.88031 19.1797 6.86347C19.1636 6.84663 19.1511 6.82679 19.1427 6.80508C19.1344 6.78338 19.1304 6.76024 19.131 6.737C19.1305 6.71345 19.135 6.69006 19.144 6.66833C19.1531 6.64659 19.1665 6.62698 19.1836 6.61074C19.2007 6.5945 19.2209 6.58201 19.2431 6.57403C19.2652 6.56606 19.2888 6.56278 19.3123 6.56442L21.2423 6.61051C21.2656 6.61104 21.2885 6.61616 21.3098 6.62557C21.331 6.63498 21.3502 6.64849 21.3663 6.66533C21.3823 6.68217 21.3948 6.70201 21.4032 6.72371C21.4115 6.74541 21.4155 6.76854 21.4149 6.79179C21.414 6.83802 21.3949 6.88204 21.3619 6.9144C21.3289 6.94676 21.2845 6.96489 21.2382 6.96488" fill="#116149"/>
<path d="M1.68176 11.9669H4.98369V14.5893H1.68176V11.9669Z" fill="#5AE4A7"/>
<path d="M1.81785 14.4526H4.84684V12.1042H1.81785V14.4526ZM5.11977 14.725H1.54797V11.8302H5.12234V14.725" fill="#116149"/>
<path d="M1.85893 14.4121H4.8065V12.1446H1.85893V14.4121ZM4.98265 14.7665H1.68073C1.63373 14.7665 1.58867 14.7478 1.55544 14.7146C1.52221 14.6814 1.50354 14.6363 1.50354 14.5893V11.9669C1.50354 11.9199 1.52221 11.8748 1.55544 11.8416C1.58867 11.8084 1.63373 11.7897 1.68073 11.7897H4.98265C5.02964 11.7897 5.07471 11.8084 5.10794 11.8416C5.14117 11.8748 5.15984 11.9199 5.15984 11.9669V14.5893C5.15984 14.6363 5.14117 14.6814 5.10794 14.7146C5.07471 14.7478 5.02964 14.7665 4.98265 14.7665Z" fill="#116149"/>
<path d="M6.63464 11.9669H9.93709V14.5893H6.63464V11.9669Z" fill="#5AE4A7"/>
<path d="M6.77132 14.4526H9.80083V12.1042H6.77132V14.4526ZM10.0738 14.725H6.4989V11.8302H10.0738V14.725Z" fill="#116149"/>
<path d="M6.81232 14.4121H9.7604V12.1446H6.81232V14.4121ZM9.93603 14.7665H6.63361C6.58662 14.7665 6.54155 14.7478 6.50832 14.7146C6.47509 14.6814 6.45642 14.6363 6.45642 14.5893V11.9669C6.45642 11.9199 6.47509 11.8748 6.50832 11.8416C6.54155 11.8084 6.58662 11.7897 6.63361 11.7897H9.93603C9.98303 11.7897 10.0281 11.8084 10.0613 11.8416C10.0945 11.8748 10.1132 11.9199 10.1132 11.9669V14.5893C10.1132 14.6363 10.0945 14.6814 10.0613 14.7146C10.0281 14.7478 9.98303 14.7665 9.93603 14.7665Z" fill="#116149"/>
<path d="M11.588 11.9669H14.8905V14.5893H11.588V11.9669Z" fill="#5AE4A7"/>
<path d="M11.7237 14.4526H14.7517V12.1042H11.7222L11.7237 14.4526ZM15.0262 14.725H11.4513V11.8302H15.0262V14.725Z" fill="#116149"/>
<path d="M11.7647 14.4121H14.7112V12.1446H11.7636L11.7647 14.4121ZM14.8884 14.7665H11.5875C11.5405 14.7665 11.4954 14.7478 11.4622 14.7146C11.4289 14.6814 11.4103 14.6363 11.4103 14.5893V11.9669C11.4103 11.9199 11.4289 11.8748 11.4622 11.8416C11.4954 11.8084 11.5405 11.7897 11.5875 11.7897H14.8899C14.9369 11.7897 14.982 11.8084 15.0152 11.8416C15.0484 11.8748 15.0671 11.9199 15.0671 11.9669V14.5893C15.0671 14.6363 15.0484 14.6814 15.0152 14.7146C14.982 14.7478 14.9369 14.7665 14.8899 14.7665" fill="#116149"/>
<path d="M16.5415 11.9669H19.8413V14.5893H16.5399V11.9669" fill="#5AE4A7"/>
<path d="M16.6782 14.4526H19.7067V12.1042H16.6782V14.4526ZM19.9796 14.725H16.4058V11.8302H19.9796V14.725Z" fill="#116149"/>
<path d="M16.7191 14.4121H19.6657V12.1446H16.7191V14.4121ZM19.8429 14.7665H16.5414C16.4944 14.7665 16.4494 14.7478 16.4161 14.7146C16.3829 14.6814 16.3643 14.6363 16.3643 14.5893V11.9669C16.3643 11.9199 16.3829 11.8748 16.4161 11.8416C16.4494 11.8084 16.4944 11.7897 16.5414 11.7897H19.8429C19.8898 11.7897 19.9349 11.8084 19.9681 11.8416C20.0014 11.8748 20.02 11.9199 20.02 11.9669V14.5893C20.02 14.6363 20.0014 14.6814 19.9681 14.7146C19.9349 14.7478 19.8898 14.7665 19.8429 14.7665Z" fill="#116149"/>
<path d="M1.68176 15.7748H4.98369V18.3972H1.68176V15.7748Z" fill="#5AE4A7"/>
<path d="M1.81785 18.2605H4.84684V15.911H1.81785V18.2605ZM5.11977 18.5329H1.54797V15.6381H5.12234V18.5329" fill="#116149"/>
<path d="M1.85893 18.22H4.8065V15.9525H1.85893V18.22ZM4.98265 18.5743H1.68073C1.63373 18.5743 1.58867 18.5557 1.55544 18.5225C1.52221 18.4892 1.50354 18.4442 1.50354 18.3972V15.7748C1.50354 15.7278 1.52221 15.6827 1.55544 15.6495C1.58867 15.6163 1.63373 15.5976 1.68073 15.5976H4.98265C5.02964 15.5976 5.07471 15.6163 5.10794 15.6495C5.14117 15.6827 5.15984 15.7278 5.15984 15.7748V18.3972C5.15984 18.4442 5.14117 18.4892 5.10794 18.5225C5.07471 18.5557 5.02964 18.5743 4.98265 18.5743Z" fill="#116149"/>
<path d="M6.63464 15.7748H9.93709V18.3972H6.63464V15.7748Z" fill="#5AE4A7"/>
<path d="M6.77132 18.2605H9.80083V15.911H6.77132V18.2605ZM10.0738 18.5329H6.4989V15.6381H10.0738V18.5329Z" fill="#116149"/>
<path d="M6.81232 18.22H9.7604V15.9525H6.81232V18.22ZM9.93603 18.5743H6.63361C6.58662 18.5743 6.54155 18.5557 6.50832 18.5225C6.47509 18.4892 6.45642 18.4442 6.45642 18.3972V15.7748C6.45642 15.7278 6.47509 15.6827 6.50832 15.6495C6.54155 15.6163 6.58662 15.5976 6.63361 15.5976H9.93603C9.98303 15.5976 10.0281 15.6163 10.0613 15.6495C10.0945 15.6827 10.1132 15.7278 10.1132 15.7748V18.3972C10.1132 18.4442 10.0945 18.4892 10.0613 18.5225C10.0281 18.5557 9.98303 18.5743 9.93603 18.5743Z" fill="#116149"/>
<path d="M4.0578 3.78841C4.01081 3.78841 3.96574 3.76973 3.93251 3.7365C3.89929 3.70327 3.88062 3.65822 3.88062 3.61123V0.177186C3.88062 0.130194 3.89929 0.0851117 3.93251 0.0518837C3.96574 0.0186557 4.01081 0 4.0578 0C4.10479 0 4.14986 0.0186557 4.18309 0.0518837C4.21632 0.0851117 4.23499 0.130194 4.23499 0.177186V3.61123C4.23499 3.65822 4.21632 3.70327 4.18309 3.7365C4.14986 3.76973 4.10479 3.78841 4.0578 3.78841Z" fill="#116149"/>
<path d="M15.8351 3.78841C15.7882 3.78841 15.7431 3.76973 15.7099 3.7365C15.6766 3.70327 15.658 3.65822 15.658 3.61123V0.177186C15.658 0.130194 15.6766 0.0851117 15.7099 0.0518837C15.7431 0.0186557 15.7882 0 15.8351 0C15.8821 0 15.9272 0.0186557 15.9604 0.0518837C15.9937 0.0851117 16.0123 0.130194 16.0123 0.177186V3.61123C16.0123 3.65822 15.9937 3.70327 15.9604 3.7365C15.9272 3.76973 15.8821 3.78841 15.8351 3.78841Z" fill="#116149"/>
<path d="M5.72662 3.78841C5.67963 3.78841 5.63457 3.76973 5.60134 3.7365C5.56811 3.70327 5.54944 3.65822 5.54944 3.61123V0.177186C5.54944 0.130194 5.56811 0.0851117 5.60134 0.0518837C5.63457 0.0186557 5.67963 0 5.72662 0C5.77362 0 5.81868 0.0186557 5.85191 0.0518837C5.88514 0.0851117 5.90379 0.130194 5.90379 0.177186V3.61123C5.90379 3.65822 5.88514 3.70327 5.85191 3.7365C5.81868 3.76973 5.77362 3.78841 5.72662 3.78841Z" fill="#116149"/>
<path d="M17.5031 3.78841C17.4561 3.78841 17.4111 3.76973 17.3778 3.7365C17.3446 3.70327 17.3259 3.65822 17.3259 3.61123V0.177186C17.3259 0.130194 17.3446 0.0851117 17.3778 0.0518837C17.4111 0.0186557 17.4561 0 17.5031 0C17.5501 0 17.5952 0.0186557 17.6284 0.0518837C17.6616 0.0851117 17.6803 0.130194 17.6803 0.177186V3.61123C17.6803 3.65822 17.6616 3.70327 17.6284 3.7365C17.5952 3.76973 17.5501 3.78841 17.5031 3.78841Z" fill="#116149"/>
</svg>
