<svg width="31" height="21" viewBox="0 0 31 21" fill="none" xmlns="http://www.w3.org/2000/svg">
<path d="M26.1969 10.1261L24.8989 11.0666C24.8594 11.0957 24.8299 11.1363 24.8145 11.1829C24.7992 11.2295 24.7988 11.2797 24.8133 11.3266L25.3118 12.8512L24.0143 11.9102C23.9742 11.8814 23.926 11.866 23.8766 11.866C23.8272 11.866 23.7791 11.8814 23.7389 11.9102L22.4415 12.8512L22.94 11.3266C22.9553 11.2794 22.9552 11.2286 22.9398 11.1814C22.9244 11.1342 22.8945 11.0932 22.8543 11.0641L21.5569 10.1235H23.1589C23.2087 10.1232 23.257 10.1071 23.2971 10.0777C23.3372 10.0482 23.3669 10.0068 23.382 9.95941L23.8769 8.43585L24.3748 9.95941C24.3891 10.0065 24.4181 10.0478 24.4574 10.0774C24.4968 10.1069 24.5446 10.123 24.5938 10.1235H26.1969" fill="#E6F6ED"/>
<path d="M22.3201 10.3732L23.0001 10.8655C23.0814 10.9249 23.1421 11.0081 23.1738 11.1036C23.2055 11.1992 23.2067 11.3022 23.177 11.3984L22.9145 12.2025L23.5945 11.7091C23.677 11.651 23.7755 11.6198 23.8765 11.6198C23.9775 11.6198 24.076 11.651 24.1586 11.7091L24.8386 12.2025L24.5776 11.4025C24.547 11.3059 24.5475 11.2022 24.5788 11.1059C24.6102 11.0096 24.6709 10.9256 24.7524 10.8655L25.4324 10.3727H24.5929C24.4907 10.3728 24.3913 10.3398 24.3092 10.2789C24.2272 10.2179 24.167 10.1321 24.1376 10.0342L23.8765 9.23682L23.617 10.0378C23.5855 10.1349 23.5242 10.2195 23.4418 10.2796C23.3594 10.3397 23.2601 10.3723 23.1581 10.3727L22.3201 10.3732ZM25.3196 13.0983H25.3119C25.2598 13.0984 25.2089 13.0819 25.1668 13.0512L23.8688 12.1107L22.5868 13.0512C22.5445 13.0818 22.4936 13.0983 22.4414 13.0983C22.3892 13.0983 22.3383 13.0818 22.296 13.0512C22.2536 13.0205 22.2221 12.9772 22.2059 12.9274C22.1898 12.8776 22.1899 12.824 22.2063 12.7743L22.7047 11.2491L21.4114 10.3261C21.369 10.2954 21.3375 10.252 21.3213 10.2023C21.3051 10.1525 21.305 10.0989 21.3212 10.0491C21.3374 9.99939 21.369 9.9561 21.4114 9.92542C21.4537 9.89474 21.5047 9.87825 21.557 9.87834H23.1591L23.6417 8.36142C23.6579 8.31177 23.6894 8.26854 23.7317 8.23787C23.7739 8.2072 23.8248 8.19069 23.877 8.19067C23.9293 8.19061 23.9802 8.2071 24.0225 8.23778C24.0648 8.26846 24.0963 8.31173 24.1124 8.36142L24.6104 9.88501L26.197 9.87834C26.2493 9.87836 26.3002 9.89487 26.3424 9.92554C26.3847 9.95621 26.4162 9.99947 26.4324 10.0491C26.4486 10.0989 26.4485 10.1525 26.4323 10.2023C26.4161 10.252 26.3845 10.2954 26.3422 10.3261L25.0442 11.2666L25.5288 12.7184C25.5537 12.758 25.5669 12.8039 25.5668 12.8507C25.5668 12.9164 25.5407 12.9794 25.4942 13.0258C25.4478 13.0723 25.3848 13.0983 25.3191 13.0983" fill="#116149"/>
<path d="M28.1911 17.2348C28.3132 17.5389 28.1578 17.7445 27.9419 17.5543L26.287 16.2379L25.9563 18.123C25.9265 18.383 25.6511 18.2979 25.5209 17.9969L24.064 14.5871V14.564C25.0354 14.5153 25.9492 14.0885 26.6101 13.3748L26.6404 13.4051L28.1911 17.2343" fill="#5AE4A7"/>
<path d="M24.4179 14.7799L25.7481 17.8928L26.0455 16.1953C26.0527 16.1532 26.0706 16.1137 26.0976 16.0807C26.1245 16.0476 26.1596 16.0221 26.1994 16.0066C26.2395 15.9913 26.283 15.9867 26.3255 15.9934C26.3679 16.0001 26.4079 16.0177 26.4414 16.0445L27.9173 17.2184L26.5327 13.7994C25.9427 14.3319 25.2055 14.6736 24.4179 14.7799ZM25.8261 18.5235C25.7059 18.5098 25.5922 18.4621 25.4983 18.386C25.4043 18.3099 25.3341 18.2085 25.2958 18.0938L23.8384 14.6835C23.8253 14.6527 23.8185 14.6196 23.8184 14.5861C23.8177 14.5202 23.8413 14.4563 23.8845 14.4066C23.9278 14.3569 23.9879 14.3248 24.0532 14.3163C24.9608 14.2727 25.8148 13.8737 26.4307 13.2056C26.4534 13.1811 26.4808 13.1614 26.5113 13.1477C26.5418 13.1341 26.5747 13.1267 26.6081 13.1261C26.6754 13.1262 26.7399 13.1525 26.7881 13.1994L26.8184 13.2297C26.8415 13.253 26.8598 13.2808 26.8722 13.3112L28.4225 17.1405C28.4663 17.2295 28.4876 17.328 28.4847 17.4272C28.4817 17.5264 28.4546 17.6234 28.4055 17.7097C28.372 17.7604 28.3262 17.802 28.2725 17.8306C28.2187 17.8591 28.1587 17.8738 28.0979 17.8733C27.9782 17.8695 27.8643 17.8212 27.7784 17.7379L26.4589 16.6892L26.2025 18.164C26.1972 18.2606 26.1554 18.3514 26.0854 18.4182C26.0155 18.4849 25.9227 18.5224 25.8261 18.523" fill="#116149"/>
<path d="M27.9446 17.5543C28.16 17.7446 28.3159 17.539 28.1938 17.2349L26.643 13.4056L26.6128 13.3754C27.2592 12.6835 27.6182 11.7715 27.6169 10.8246C27.6172 10.3334 27.5206 9.84688 27.3328 9.39297C27.1449 8.93906 26.8694 8.5266 26.5221 8.17921C26.1748 7.83183 25.7624 7.55633 25.3085 7.36842C24.8546 7.1805 24.3681 7.08388 23.8769 7.08409C23.3856 7.08388 22.8991 7.18048 22.4452 7.36839C21.9913 7.55629 21.5789 7.8318 21.2315 8.17918C20.8841 8.52656 20.6086 8.939 20.4207 9.39291C20.2328 9.84682 20.1362 10.3333 20.1364 10.8246C20.1353 11.3768 20.2569 11.9224 20.4923 12.4219C20.7276 12.9215 21.0709 13.3625 21.4974 13.7133L21.3189 13.7984L19.9343 17.2343C19.8153 17.5384 19.9677 17.7441 20.1836 17.5538L21.8415 16.2374L22.1728 18.1225C22.1984 18.3825 22.4738 18.2974 22.6071 17.9964L24.0651 14.5867L25.522 17.9964C25.6523 18.2974 25.9277 18.3825 25.9574 18.1225L26.2882 16.2374L27.9446 17.5543ZM29.881 1.51843V18.48C29.865 18.8319 29.7104 19.1632 29.451 19.4015C29.1916 19.6397 28.8484 19.7657 28.4964 19.7518H1.63535C1.28336 19.7657 0.940173 19.6397 0.680741 19.4015C0.421309 19.1632 0.266716 18.8319 0.250732 18.48V1.51843C0.266716 1.16653 0.421309 0.83525 0.680741 0.596957C0.940173 0.358664 1.28336 0.232735 1.63535 0.246647H28.4948C28.8468 0.232735 29.19 0.358664 29.4494 0.596957C29.7089 0.83525 29.8635 1.16653 29.8795 1.51843" fill="#E6F6ED"/>
<path d="M24.0667 14.3404C24.1151 14.3405 24.1625 14.3548 24.203 14.3815C24.2435 14.4082 24.2752 14.4461 24.2944 14.4907L25.7482 17.8932L26.0456 16.1958C26.0528 16.1537 26.0708 16.1143 26.0977 16.0812C26.1247 16.0481 26.1597 16.0226 26.1995 16.0071C26.2396 15.9917 26.283 15.9871 26.3255 15.9936C26.3679 16.0002 26.4079 16.0178 26.4415 16.0445L27.9174 17.2184L26.4303 13.5445C26.3876 13.4986 26.3639 13.4382 26.3639 13.3755C26.3639 13.3129 26.3876 13.2525 26.4303 13.2066C27.0343 12.5609 27.3695 11.7092 27.3677 10.825C27.3667 9.89905 26.9985 9.01129 26.3438 8.35648C25.6891 7.70167 24.8014 7.3333 23.8754 7.33222C22.9494 7.3333 22.0616 7.70165 21.4068 8.35645C20.752 9.01124 20.3837 9.899 20.3826 10.825C20.3818 11.3406 20.4954 11.85 20.7151 12.3164C20.9348 12.7829 21.2553 13.1948 21.6533 13.5225C21.6855 13.5489 21.7104 13.583 21.7259 13.6217C21.7413 13.6603 21.7467 13.7022 21.7415 13.7435C21.7365 13.7847 21.7212 13.824 21.697 13.8578C21.6728 13.8916 21.6405 13.9188 21.6031 13.9368L21.5113 13.9804L20.198 17.2435L21.6882 16.044C21.7217 16.0173 21.7616 15.9998 21.804 15.9932C21.8464 15.9866 21.8897 15.9912 21.9297 16.0066C21.9695 16.0221 22.0045 16.0477 22.0315 16.0807C22.0584 16.1138 22.0764 16.1533 22.0836 16.1953L22.3815 17.8912L23.8354 14.4902C23.8548 14.4451 23.8871 14.4068 23.9283 14.3802C23.9695 14.3535 24.0176 14.3397 24.0667 14.3404ZM25.8267 18.5256C25.7065 18.5119 25.5928 18.4641 25.4989 18.388C25.4049 18.3119 25.3347 18.2105 25.2964 18.0958L24.0656 15.2179L22.8349 18.0948C22.7958 18.2097 22.725 18.3112 22.6306 18.3875C22.5362 18.4639 22.4221 18.5119 22.3015 18.5261C22.2021 18.5243 22.1072 18.4839 22.0371 18.4133C21.967 18.3427 21.9272 18.2476 21.9262 18.1481L21.6697 16.6917L20.3364 17.7491C20.253 17.8278 20.1434 17.8729 20.0287 17.8758C19.9686 17.876 19.9094 17.8613 19.8563 17.833C19.8032 17.8048 19.758 17.7638 19.7246 17.7138C19.6757 17.6276 19.6484 17.5309 19.6449 17.4318C19.6414 17.3328 19.6619 17.2344 19.7046 17.145L21.0892 13.7091C21.0918 13.7025 21.0944 13.6963 21.0974 13.6902C20.7141 13.3185 20.4096 12.8734 20.2019 12.3815C19.9943 11.8897 19.8877 11.361 19.8887 10.8271C19.8899 9.76973 20.3105 8.75603 21.0582 8.00836C21.8059 7.26069 22.8196 6.84012 23.8769 6.8389C24.9342 6.84025 25.9477 7.26091 26.6952 8.00858C27.4426 8.75625 27.863 9.76986 27.8641 10.8271C27.866 11.7753 27.5284 12.6929 26.9123 13.4138L28.4226 17.144C28.4663 17.2331 28.4877 17.3315 28.4847 17.4307C28.4818 17.5299 28.4546 17.6269 28.4056 17.7132C28.3721 17.764 28.3263 17.8055 28.2726 17.8341C28.2188 17.8627 28.1588 17.8774 28.0979 17.8768C27.9783 17.8731 27.8644 17.8248 27.7785 17.7414L26.459 16.6927L26.2026 18.1676C26.197 18.2638 26.155 18.3542 26.0852 18.4206C26.0154 18.487 25.923 18.5243 25.8267 18.525V18.5256ZM1.63538 0.494276C1.3486 0.48029 1.06792 0.580274 0.854555 0.772408C0.64119 0.964543 0.512451 1.23324 0.496411 1.51992V18.482C0.512451 18.7686 0.64119 19.0373 0.854555 19.2295C1.06792 19.4216 1.3486 19.5216 1.63538 19.5076H28.4949C28.7817 19.5217 29.0626 19.4218 29.276 19.2297C29.4895 19.0375 29.6183 18.7687 29.6344 18.482V1.51992C29.6183 1.23315 29.4895 0.964369 29.276 0.77222C29.0626 0.580071 28.7817 0.480151 28.4949 0.494276H1.63538ZM28.4949 19.9994H1.63538C1.21724 20.0139 0.810367 19.8622 0.503853 19.5774C0.197339 19.2926 0.0161624 18.898 0 18.4799V1.51992C0.0162968 1.10211 0.197389 0.707752 0.503665 0.423099C0.809941 0.138446 1.21647 -0.0133587 1.63436 0.00092381H28.4938C28.9117 -0.0133587 29.3183 0.138446 29.6245 0.423099C29.9308 0.707752 30.1119 1.10211 30.1282 1.51992V18.482C30.1119 18.8998 29.9308 19.2941 29.6245 19.5788C29.3183 19.8634 28.9117 20.0152 28.4938 20.0009" fill="#116149"/>
<path d="M24.899 11.064L26.197 10.1235H24.5939C24.5447 10.123 24.4969 10.1069 24.4576 10.0773C24.4182 10.0478 24.3892 10.0065 24.3749 9.95943L23.877 8.43584L23.3821 9.95943C23.367 10.0068 23.3373 10.0482 23.2972 10.0777C23.2571 10.1071 23.2088 10.1232 23.1591 10.1235H21.557L22.8544 11.064C22.8941 11.093 22.9237 11.1337 22.939 11.1803C22.9544 11.2269 22.9548 11.2772 22.9401 11.3241L22.4416 12.8492L23.7391 11.9081C23.7792 11.8794 23.8273 11.8639 23.8767 11.8639C23.9261 11.8639 23.9743 11.8794 24.0144 11.9081L25.3119 12.8492L24.8134 11.3241C24.7989 11.2772 24.7993 11.227 24.8147 11.1804C24.83 11.1338 24.8595 11.0931 24.899 11.064ZM23.877 7.08198C24.3683 7.08171 24.8548 7.1783 25.3087 7.36619C25.7626 7.55408 26.175 7.82959 26.5224 8.17699C26.8697 8.52438 27.1452 8.93686 27.333 9.3908C27.5208 9.84474 27.6173 10.3312 27.617 10.8225C27.6182 11.7692 27.2593 12.681 26.6129 13.3728C25.952 14.0864 25.0382 14.5132 24.0667 14.562C24.0031 14.5661 23.9401 14.5661 23.877 14.5661C23.0086 14.566 22.1673 14.2635 21.4975 13.7107C21.071 13.3599 20.7277 12.9188 20.4924 12.4193C20.257 11.9198 20.1354 11.3742 20.1365 10.822C20.1363 10.3307 20.2329 9.84424 20.4208 9.39033C20.6087 8.93642 20.8842 8.52399 21.2316 8.17661C21.579 7.82923 21.9914 7.55372 22.4453 7.36581C22.8992 7.17791 23.3857 7.08128 23.877 7.08148" fill="#5AE4A7"/>
<path d="M22.32 10.3738L23 10.8661C23.0813 10.9255 23.142 11.0087 23.1737 11.1042C23.2054 11.1997 23.2065 11.3027 23.1769 11.3989L22.9144 12.203L23.5944 11.7097C23.6769 11.6515 23.7754 11.6203 23.8764 11.6203C23.9774 11.6203 24.0759 11.6515 24.1585 11.7097L24.8385 12.203L24.5774 11.403C24.5469 11.3065 24.5473 11.2028 24.5787 11.1065C24.6101 11.0102 24.6708 10.9262 24.7523 10.8661L25.4323 10.3733H24.5928C24.4906 10.3733 24.3911 10.3404 24.3091 10.2794C24.2271 10.2185 24.1669 10.1327 24.1374 10.0348L23.8764 9.23739L23.6169 10.0384C23.5854 10.1354 23.5241 10.22 23.4417 10.2802C23.3593 10.3403 23.26 10.3729 23.158 10.3733L22.32 10.3738ZM25.3118 13.0989C25.2596 13.099 25.2088 13.0824 25.1667 13.0517L23.8764 12.1164L22.5867 13.0517C22.5444 13.0824 22.4935 13.0989 22.4413 13.0989C22.3891 13.0989 22.3382 13.0824 22.2959 13.0517C22.2536 13.021 22.2221 12.9777 22.2059 12.9279C22.1898 12.8781 22.1899 12.8246 22.2062 12.7748L22.7046 11.2497L21.4113 10.3266C21.3689 10.2959 21.3374 10.2526 21.3212 10.2028C21.3049 10.1531 21.3049 10.0995 21.321 10.0497C21.3373 9.99996 21.3689 9.95667 21.4112 9.926C21.4536 9.89532 21.5046 9.87882 21.5569 9.87892H23.159L23.6415 8.36199C23.6578 8.31235 23.6893 8.26912 23.7315 8.23845C23.7738 8.20778 23.8247 8.19126 23.8769 8.19125C23.9292 8.19119 23.9801 8.20768 24.0224 8.23836C24.0647 8.26904 24.0962 8.3123 24.1123 8.36199L24.6103 9.88559L26.1969 9.87892C26.2492 9.87893 26.3 9.89545 26.3423 9.92612C26.3846 9.95679 26.4161 10 26.4323 10.0497C26.4484 10.0995 26.4484 10.1531 26.4322 10.2028C26.416 10.2526 26.3844 10.2959 26.3421 10.3266L25.0441 11.2671L25.5472 12.7743C25.5635 12.824 25.5635 12.8776 25.5474 12.9274C25.5313 12.9772 25.4998 13.0205 25.4574 13.0512C25.4152 13.0821 25.3642 13.0988 25.3118 13.0989ZM23.8759 7.33175C22.9499 7.33284 22.0621 7.70119 21.4073 8.35598C20.7525 9.01078 20.3842 9.89854 20.3831 10.8246C20.3823 11.3402 20.4959 11.8495 20.7156 12.316C20.9354 12.7824 21.2558 13.1943 21.6539 13.522C22.2839 14.04 23.0746 14.3225 23.8903 14.321C23.9415 14.321 23.9964 14.321 24.0498 14.3174C24.9584 14.2744 25.8136 13.8753 26.4303 13.2066C27.0346 12.5608 27.37 11.709 27.3682 10.8246C27.3673 9.89876 26.9992 9.01114 26.3447 8.35636C25.6902 7.70158 24.8027 7.33311 23.8769 7.33175H23.8759ZM23.8759 14.8164C22.9504 14.8144 22.054 14.4923 21.339 13.9046C20.8843 13.5305 20.5184 13.0602 20.2674 12.5276C20.0164 11.995 19.8868 11.4133 19.8877 10.8246C19.8889 9.7672 20.3095 8.7535 21.0572 8.00583C21.8048 7.25816 22.8185 6.83759 23.8759 6.83636C24.9331 6.83772 25.9467 7.25838 26.6941 8.00605C27.4416 8.75372 27.862 9.76733 27.8631 10.8246C27.8647 11.8337 27.4818 12.8056 26.7923 13.5425C26.0887 14.3048 25.1136 14.7599 24.0774 14.8097C24.0118 14.8138 23.9436 14.8143 23.8754 14.8143" fill="#116149"/>
<path d="M24.0667 14.5651V14.5876L22.6087 17.9974C22.4754 18.2984 22.1985 18.3835 22.1744 18.1235L21.8431 16.2384L20.1851 17.5548C19.9698 17.7451 19.8174 17.5394 19.9359 17.2353L21.3205 13.7994L21.499 13.7143C22.1687 14.2671 23.01 14.5696 23.8785 14.5697C23.9415 14.5697 24.0046 14.5697 24.0682 14.5656" fill="#5AE4A7"/>
<path d="M21.8432 15.9907C21.8733 15.9905 21.9032 15.9959 21.9314 16.0066C21.9711 16.0221 22.0061 16.0476 22.0331 16.0807C22.06 16.1138 22.078 16.1533 22.0852 16.1953L22.3832 17.8912L23.6996 14.8143C22.9026 14.7772 22.1347 14.5031 21.4944 14.0271L20.1991 17.2455L21.6893 16.0461C21.7334 16.0122 21.7876 15.9941 21.8432 15.9948V15.9907ZM22.3047 18.525C22.2052 18.5233 22.1104 18.4829 22.0403 18.4123C21.9702 18.3417 21.9304 18.2465 21.9293 18.1471L21.6729 16.6902L20.3396 17.7476C20.2561 17.8262 20.1465 17.8713 20.0319 17.8743C19.9718 17.8745 19.9125 17.8598 19.8594 17.8315C19.8064 17.8032 19.7611 17.7622 19.7278 17.7122C19.6789 17.626 19.6516 17.5293 19.6481 17.4303C19.6446 17.3313 19.6651 17.2329 19.7078 17.1435L21.0924 13.7076C21.1155 13.6503 21.1592 13.6036 21.215 13.5768L21.3934 13.4912C21.436 13.4709 21.4834 13.4632 21.5302 13.4689C21.577 13.4746 21.6211 13.4935 21.6575 13.5235C22.2878 14.0414 23.0787 14.3239 23.8944 14.3225C23.9457 14.3225 24.0001 14.3225 24.0534 14.3189C24.0872 14.3166 24.1211 14.3213 24.153 14.3328C24.1848 14.3443 24.214 14.3623 24.2385 14.3856C24.2633 14.4086 24.2831 14.4366 24.2966 14.4676C24.3101 14.4987 24.317 14.5322 24.317 14.5661C24.3169 14.6071 24.3102 14.6478 24.297 14.6866L22.8355 18.0937C22.7964 18.2087 22.7255 18.3102 22.6312 18.3865C22.5368 18.4628 22.4227 18.5109 22.3021 18.525" fill="#116149"/>
<path d="M25.8242 18.5256C25.7041 18.512 25.5904 18.4644 25.4966 18.3882C25.4028 18.312 25.3328 18.2106 25.2949 18.0958L23.8375 14.6855C23.8247 14.6557 23.818 14.6235 23.8176 14.591C23.8173 14.5585 23.8234 14.5263 23.8355 14.4961C23.8477 14.466 23.8657 14.4385 23.8884 14.4153C23.9112 14.3921 23.9383 14.3736 23.9683 14.3609C23.9981 14.3482 24.0302 14.3414 24.0627 14.341C24.0952 14.3407 24.1274 14.3467 24.1576 14.3588C24.1877 14.3709 24.2152 14.3888 24.2384 14.4115C24.2616 14.4342 24.2801 14.4613 24.2929 14.4912L25.7467 17.8938L26.0442 16.1963C26.0513 16.1543 26.0693 16.1148 26.0962 16.0817C26.1232 16.0486 26.1583 16.0231 26.198 16.0076C26.2382 15.9923 26.2816 15.9878 26.3241 15.9945C26.3665 16.0011 26.4065 16.0187 26.4401 16.0456L27.9159 17.2194L26.4093 13.4994C26.3848 13.4385 26.3854 13.3703 26.4111 13.3098C26.4368 13.2494 26.4853 13.2016 26.5462 13.1769C26.6071 13.1523 26.6753 13.153 26.7358 13.1787C26.7962 13.2043 26.8441 13.2529 26.8688 13.3138L28.419 17.143C28.4789 17.2503 28.5004 17.3748 28.4801 17.4959C28.4597 17.6171 28.3988 17.7278 28.3072 17.8097C28.2249 17.8626 28.1265 17.8847 28.0294 17.872C27.9324 17.8593 27.8429 17.8127 27.777 17.7404L26.4575 16.6917L26.2011 18.1666C26.1962 18.2536 26.1618 18.3363 26.1035 18.401C26.0452 18.4657 25.9666 18.5086 25.8806 18.5225C25.8617 18.525 25.8427 18.5262 25.8236 18.5261" fill="#116149"/>
<path d="M23.8769 7.33175C22.9509 7.33284 22.0631 7.70119 21.4083 8.35598C20.7535 9.01078 20.3851 9.89854 20.3841 10.8246C20.3833 11.3402 20.4969 11.8495 20.7166 12.316C20.9363 12.7824 21.2568 13.1943 21.6548 13.522C22.2849 14.04 23.0756 14.3225 23.8912 14.321C23.9425 14.321 23.9974 14.321 24.0507 14.3174C24.9594 14.2744 25.8145 13.8753 26.4312 13.2066C27.0356 12.5609 27.371 11.709 27.3692 10.8246C27.3682 9.89859 27 9.01083 26.3453 8.35601C25.6906 7.7012 24.8029 7.33284 23.8769 7.33175ZM23.8769 14.8164C22.9513 14.8144 22.055 14.4923 21.34 13.9046C20.8853 13.5305 20.5193 13.0602 20.2684 12.5276C20.0174 11.995 19.8877 11.4133 19.8887 10.8246C19.8899 9.7672 20.3105 8.7535 21.0581 8.00583C21.8058 7.25816 22.8195 6.83759 23.8769 6.83636C24.9341 6.83772 25.9476 7.25838 26.6951 8.00605C27.4426 8.75372 27.863 9.76733 27.8641 10.8246C27.8657 11.8337 27.4828 12.8056 26.7933 13.5425C26.0898 14.3047 25.1149 14.7598 24.0789 14.8097C24.0133 14.8138 23.9451 14.8143 23.8769 14.8143" fill="#116149"/>
<path d="M22.3201 10.3732L23.0001 10.8655C23.0814 10.9249 23.1421 11.0081 23.1738 11.1036C23.2055 11.1992 23.2067 11.3022 23.177 11.3984L22.9145 12.2025L23.5945 11.7091C23.677 11.651 23.7755 11.6198 23.8765 11.6198C23.9775 11.6198 24.076 11.651 24.1586 11.7091L24.8386 12.2025L24.5776 11.4025C24.547 11.3059 24.5475 11.2022 24.5788 11.1059C24.6102 11.0096 24.6709 10.9256 24.7524 10.8655L25.4324 10.3727H24.5929C24.4907 10.3728 24.3913 10.3398 24.3092 10.2789C24.2272 10.2179 24.167 10.1321 24.1376 10.0342L23.8765 9.23682L23.617 10.0378C23.5855 10.1349 23.5242 10.2195 23.4418 10.2796C23.3594 10.3397 23.2601 10.3723 23.1581 10.3727L22.3201 10.3732ZM25.3196 13.0983H25.3119C25.2598 13.0984 25.2089 13.0819 25.1668 13.0512L23.8688 12.1107L22.5868 13.0512C22.5445 13.0818 22.4936 13.0983 22.4414 13.0983C22.3892 13.0983 22.3383 13.0818 22.296 13.0512C22.2536 13.0205 22.2221 12.9772 22.2059 12.9274C22.1898 12.8776 22.1899 12.824 22.2063 12.7743L22.7047 11.2491L21.4114 10.3261C21.369 10.2954 21.3375 10.252 21.3213 10.2023C21.3051 10.1525 21.305 10.0989 21.3212 10.0491C21.3374 9.99939 21.369 9.9561 21.4114 9.92542C21.4537 9.89474 21.5047 9.87825 21.557 9.87834H23.1591L23.6417 8.36142C23.6579 8.31177 23.6894 8.26854 23.7317 8.23787C23.7739 8.2072 23.8248 8.19069 23.877 8.19067C23.9293 8.19061 23.9802 8.2071 24.0225 8.23778C24.0648 8.26846 24.0963 8.31173 24.1124 8.36142L24.6104 9.88501L26.197 9.87834C26.2493 9.87836 26.3002 9.89487 26.3424 9.92554C26.3847 9.95621 26.4162 9.99947 26.4324 10.0491C26.4486 10.0989 26.4485 10.1525 26.4323 10.2023C26.4161 10.252 26.3845 10.2954 26.3422 10.3261L25.0442 11.2666L25.5288 12.7184C25.5537 12.758 25.5669 12.8039 25.5668 12.8507C25.5668 12.9164 25.5407 12.9794 25.4942 13.0258C25.4478 13.0723 25.3848 13.0983 25.3191 13.0983" fill="#116149"/>
<path d="M1.63538 0.494276C1.3486 0.48029 1.06792 0.580274 0.854555 0.772408C0.64119 0.964543 0.512451 1.23324 0.496411 1.51992V18.482C0.512451 18.7686 0.64119 19.0373 0.854555 19.2295C1.06792 19.4216 1.3486 19.5216 1.63538 19.5076H28.4949C28.7817 19.5217 29.0626 19.4218 29.276 19.2297C29.4895 19.0375 29.6183 18.7687 29.6344 18.482V1.51992C29.6183 1.23315 29.4895 0.964369 29.276 0.77222C29.0626 0.580071 28.7817 0.480151 28.4949 0.494276H1.63538ZM28.4949 19.9994H1.63538C1.21724 20.0139 0.810367 19.8622 0.503853 19.5774C0.197339 19.2926 0.0161624 18.898 0 18.4799V1.51992C0.0162968 1.10211 0.197389 0.707752 0.503665 0.423099C0.809941 0.138446 1.21647 -0.0133587 1.63436 0.00092381H28.4938C28.9117 -0.0133587 29.3183 0.138446 29.6245 0.423099C29.9308 0.707752 30.1119 1.10211 30.1282 1.51992V18.482C30.1119 18.8998 29.9308 19.2941 29.6245 19.5788C29.3183 19.8634 28.9117 20.0152 28.4938 20.0009" fill="#116149"/>
<path d="M22.3046 18.525C22.2841 18.525 22.2637 18.5235 22.2435 18.5204C22.1558 18.5041 22.0765 18.458 22.0189 18.3899C21.9613 18.3217 21.9291 18.2358 21.9276 18.1466L21.6712 16.6902L20.3379 17.7476C20.2721 17.8163 20.1845 17.8601 20.09 17.8713C19.9955 17.8825 19.9 17.8605 19.82 17.8091C19.7282 17.7274 19.6669 17.617 19.6459 17.496C19.6249 17.3749 19.6456 17.2503 19.7046 17.1425L21.0892 13.7066C21.1137 13.6457 21.1614 13.597 21.2218 13.5712C21.2822 13.5454 21.3503 13.5447 21.4112 13.5691C21.4721 13.5937 21.5206 13.6415 21.5463 13.7019C21.572 13.7622 21.5726 13.8303 21.5482 13.8912L20.2082 17.2184L21.6887 16.044C21.7222 16.0173 21.7621 15.9998 21.8045 15.9933C21.8468 15.9867 21.8902 15.9913 21.9302 16.0066C21.9699 16.0221 22.005 16.0477 22.0319 16.0807C22.0589 16.1138 22.0768 16.1532 22.0841 16.1953L22.382 17.8912L23.8359 14.4902C23.8485 14.4603 23.867 14.4331 23.8902 14.4104C23.9134 14.3876 23.9409 14.3697 23.9711 14.3576C24.0012 14.3455 24.0335 14.3394 24.066 14.3398C24.0985 14.3403 24.1306 14.3471 24.1605 14.3599C24.2208 14.3857 24.2685 14.4343 24.293 14.4952C24.3175 14.556 24.3169 14.6241 24.2912 14.6845L22.8353 18.0943C22.7967 18.2092 22.7263 18.3108 22.6321 18.3872C22.5379 18.4635 22.424 18.5115 22.3035 18.5255" fill="#116149"/>
<path d="M26.3569 4.73324H22.8102C22.7445 4.73324 22.6815 4.70717 22.635 4.66072C22.5886 4.61427 22.5625 4.55125 22.5625 4.48556C22.5625 4.41987 22.5886 4.35686 22.635 4.31041C22.6815 4.26396 22.7445 4.23785 22.8102 4.23785H26.3569C26.4225 4.23799 26.4853 4.26416 26.5317 4.3106C26.578 4.35703 26.604 4.41996 26.604 4.48556C26.604 4.55117 26.578 4.61409 26.5317 4.66053C26.4853 4.70697 26.4225 4.7331 26.3569 4.73324Z" fill="#116149"/>
<path d="M19.5011 4.73324H17.8129C17.7803 4.73324 17.7482 4.72685 17.7181 4.7144C17.6881 4.70194 17.6609 4.68369 17.6379 4.66069C17.6149 4.63768 17.5967 4.61036 17.5843 4.58031C17.572 4.55026 17.5656 4.51807 17.5657 4.48556C17.5657 4.41996 17.5917 4.35703 17.638 4.3106C17.6844 4.26416 17.7472 4.23799 17.8129 4.23785H19.5011C19.5668 4.23785 19.6297 4.26396 19.6762 4.31041C19.7227 4.35686 19.7488 4.41987 19.7488 4.48556C19.7488 4.55125 19.7227 4.61427 19.6762 4.66072C19.6297 4.70717 19.5668 4.73324 19.5011 4.73324Z" fill="#116149"/>
<path d="M13.8749 4.73324H2.05897C1.99328 4.73324 1.93028 4.70717 1.88383 4.66072C1.83737 4.61427 1.81128 4.55125 1.81128 4.48556C1.81128 4.41987 1.83737 4.35686 1.88383 4.31041C1.93028 4.26396 1.99328 4.23785 2.05897 4.23785H13.8754C13.9411 4.23785 14.0041 4.26396 14.0505 4.31041C14.097 4.35686 14.1231 4.41987 14.1231 4.48556C14.1231 4.55125 14.097 4.61427 14.0505 4.66072C14.0041 4.70717 13.9411 4.73324 13.8754 4.73324" fill="#116149"/>
<path d="M16.1358 8.09735H3.07069C3.005 8.09735 2.942 8.07127 2.89554 8.02482C2.84909 7.97837 2.823 7.91536 2.823 7.84967C2.823 7.78398 2.84909 7.72096 2.89554 7.67451C2.942 7.62806 3.005 7.60199 3.07069 7.60199H16.1358C16.2015 7.60199 16.2645 7.62806 16.311 7.67451C16.3574 7.72096 16.3835 7.78398 16.3835 7.84967C16.3835 7.91536 16.3574 7.97837 16.311 8.02482C16.2645 8.07127 16.2015 8.09735 16.1358 8.09735Z" fill="#116149"/>
<path d="M17.2739 10.9087H13.9498C13.8841 10.9087 13.8211 10.8826 13.7747 10.8361C13.7282 10.7896 13.7021 10.7266 13.7021 10.6609C13.7021 10.5953 13.7282 10.5323 13.7747 10.4858C13.8211 10.4394 13.8841 10.4133 13.9498 10.4133H17.2739C17.3396 10.4133 17.4026 10.4394 17.4491 10.4858C17.4955 10.5323 17.5216 10.5953 17.5216 10.6609C17.5216 10.7266 17.4955 10.7896 17.4491 10.8361C17.4026 10.8826 17.3396 10.9087 17.2739 10.9087Z" fill="#116149"/>
<path d="M12.3917 10.9087H3.07069C3.005 10.9087 2.942 10.8826 2.89554 10.8361C2.84909 10.7896 2.823 10.7266 2.823 10.6609C2.823 10.5953 2.84909 10.5323 2.89554 10.4858C2.942 10.4394 3.005 10.4133 3.07069 10.4133H12.3917C12.4574 10.4133 12.5204 10.4394 12.5669 10.4858C12.6133 10.5323 12.6394 10.5953 12.6394 10.6609C12.6394 10.7266 12.6133 10.7896 12.5669 10.8361C12.5204 10.8826 12.4574 10.9087 12.3917 10.9087Z" fill="#116149"/>
<path d="M17.2733 13.7184H7.23841C7.17272 13.7184 7.10972 13.6923 7.06327 13.6459C7.01682 13.5994 6.99072 13.5364 6.99072 13.4707C6.99072 13.405 7.01682 13.342 7.06327 13.2956C7.10972 13.2491 7.17272 13.223 7.23841 13.223H17.2733C17.339 13.223 17.402 13.2491 17.4484 13.2956C17.4949 13.342 17.521 13.405 17.521 13.4707C17.521 13.5364 17.4949 13.5994 17.4484 13.6459C17.402 13.6923 17.339 13.7184 17.2733 13.7184Z" fill="#116149"/>
<path d="M5.47223 13.7184H3.07069C3.005 13.7184 2.942 13.6923 2.89554 13.6459C2.84909 13.5994 2.823 13.5364 2.823 13.4707C2.823 13.405 2.84909 13.342 2.89554 13.2956C2.942 13.2491 3.005 13.223 3.07069 13.223H5.47223C5.53792 13.223 5.60093 13.2491 5.64738 13.2956C5.69383 13.342 5.71992 13.405 5.71992 13.4707C5.71992 13.5364 5.69383 13.5994 5.64738 13.6459C5.60093 13.6923 5.53792 13.7184 5.47223 13.7184Z" fill="#116149"/>
<path d="M17.2734 16.5302H11.0682C11.0026 16.5302 10.9396 16.5041 10.8931 16.4577C10.8467 16.4112 10.8206 16.3482 10.8206 16.2825C10.8206 16.2168 10.8467 16.1538 10.8931 16.1073C10.9396 16.0609 11.0026 16.0348 11.0682 16.0348H17.2734C17.3391 16.0348 17.4021 16.0609 17.4485 16.1073C17.495 16.1538 17.5211 16.2168 17.5211 16.2825C17.5211 16.3482 17.495 16.4112 17.4485 16.4577C17.4021 16.5041 17.3391 16.5302 17.2734 16.5302Z" fill="#116149"/>
<path d="M9.38403 16.5302H3.07069C3.005 16.5302 2.942 16.5041 2.89554 16.4577C2.84909 16.4112 2.823 16.3482 2.823 16.2825C2.823 16.2168 2.84909 16.1538 2.89554 16.1073C2.942 16.0609 3.005 16.0348 3.07069 16.0348H9.38403C9.44972 16.0348 9.51272 16.0609 9.55917 16.1073C9.60563 16.1538 9.63172 16.2168 9.63172 16.2825C9.63172 16.3482 9.60563 16.4112 9.55917 16.4577C9.51272 16.5041 9.44972 16.5302 9.38403 16.5302Z" fill="#116149"/>
</svg>
