<svg width="18" height="29" viewBox="0 0 18 29" fill="none" xmlns="http://www.w3.org/2000/svg">
<path d="M7.14841 27.18C6.55776 27.1499 6.00118 26.8948 5.59337 26.4674C5.18555 26.0399 4.95758 25.4727 4.95642 24.8824H12.9916C12.9907 25.4714 12.7639 26.0376 12.3578 26.4649C11.9517 26.8922 11.397 27.148 10.8078 27.18C10.7425 27.619 10.5217 28.0201 10.1853 28.3104C9.84891 28.6007 9.41933 28.7608 8.97462 28.7619C8.53079 28.7608 8.10214 28.6004 7.76705 28.31C7.43196 28.0195 7.2128 27.6184 7.14963 27.18" fill="#5AE4A7"/>
<path d="M5.21004 25.1206C5.26738 25.6051 5.4947 26.0538 5.85176 26.3872C6.20883 26.7205 6.67259 26.917 7.1609 26.9419C7.21595 26.9447 7.26831 26.9665 7.30907 27.0035C7.34982 27.0406 7.37646 27.0905 7.38448 27.145C7.43776 27.5275 7.62804 27.8778 7.92014 28.1312C8.21223 28.3845 8.58636 28.5238 8.97336 28.5231C9.3614 28.5237 9.73661 28.3845 10.03 28.1311C10.3234 27.8777 10.5153 27.5271 10.5704 27.1437C10.5786 27.0898 10.6051 27.0404 10.6454 27.0037C10.6858 26.9669 10.7376 26.9451 10.7921 26.9419C11.2789 26.9142 11.7406 26.7166 12.0963 26.3837C12.452 26.0508 12.6791 25.6037 12.738 25.1206H5.21004ZM8.97336 29C8.50422 29.0018 8.04838 28.8447 7.68042 28.5542C7.31247 28.2638 7.0542 27.8573 6.94795 27.4012C6.3327 27.3242 5.76675 27.0259 5.35617 26.5622C4.94559 26.0985 4.7186 25.5012 4.71777 24.8824C4.71777 24.8511 4.72398 24.8201 4.73601 24.7912C4.74804 24.7622 4.76565 24.736 4.78788 24.7138C4.8101 24.6917 4.83649 24.6741 4.86551 24.6622C4.89454 24.6503 4.92564 24.6442 4.95703 24.6443H12.9903C13.0536 24.6443 13.1143 24.6694 13.1591 24.714C13.2038 24.7587 13.229 24.8193 13.229 24.8824C13.2267 25.4996 13.0001 26.095 12.5912 26.558C12.1823 27.021 11.6189 27.3202 11.0056 27.4C10.8973 27.8564 10.6375 28.2629 10.2684 28.5533C9.89937 28.8438 9.44276 29.0012 8.97275 29" fill="#116149"/>
<path d="M17.7295 9.7546C17.2173 11.3322 16.6018 12.8745 15.887 14.3716C14.8402 15.7241 13.8739 17.1368 12.9929 18.6023V23.1436H4.95833V18.5273C4.10267 17.0806 3.15133 15.6925 2.11062 14.3722C0.896044 12.8372 0.236419 10.9379 0.238653 8.98207C0.238077 7.83357 0.464304 6.69624 0.904346 5.63502C1.34439 4.5738 1.98965 3.6095 2.80326 2.79724C3.61688 1.98499 4.5829 1.34067 5.64612 0.901145C6.70934 0.461615 7.8489 0.235492 8.99973 0.235657C10.1503 0.235493 11.2896 0.461544 12.3527 0.900878C13.4157 1.34021 14.3816 1.98421 15.1951 2.79614C16.0087 3.60806 16.654 4.57198 17.0942 5.63284C17.5345 6.69371 17.761 7.83074 17.7608 8.97898C17.7608 9.24023 17.75 9.49795 17.7282 9.75212" fill="#5AE4A7"/>
<path d="M5.19444 22.9042H12.7499V18.6016C12.7497 18.5576 12.7616 18.5144 12.7843 18.4767C13.667 17.0093 14.6344 15.5944 15.6815 14.239C16.381 12.7666 16.9858 11.2513 17.4921 9.70209C17.509 9.48334 17.5191 9.2302 17.5191 8.97957C17.5161 6.72549 16.6176 4.56453 15.0206 2.97053C13.4236 1.37653 11.2584 0.479544 8.99973 0.476237C6.74041 0.478884 4.57438 1.37577 2.9768 2.97011C1.37922 4.56445 0.480554 6.72606 0.477902 8.98079C0.471595 10.8838 1.11356 12.7324 2.2985 14.2234C3.34525 15.5524 4.30245 16.9492 5.16375 18.4048C5.18561 18.4414 5.19707 18.4834 5.19693 18.526L5.19444 22.9042ZM12.9885 23.3811H4.95833C4.92694 23.3812 4.89584 23.3751 4.86681 23.3632C4.83779 23.3512 4.8114 23.3337 4.78918 23.3116C4.76695 23.2895 4.74934 23.2632 4.73731 23.2343C4.72528 23.2053 4.71907 23.1743 4.71907 23.143V18.5916C3.87729 17.1743 2.94318 15.8136 1.92274 14.5184C0.671411 12.9437 -0.00655294 10.9913 4.77461e-05 8.98144C0.00270002 6.60023 0.951736 4.31731 2.63893 2.63353C4.32612 0.949759 6.61368 0.0026469 8.99973 0C11.3858 0.00264659 13.6735 0.949739 15.3608 2.6335C17.0481 4.31725 17.9972 6.60017 18 8.98144C18 9.24582 17.9882 9.51207 17.9662 9.77457C17.4508 11.3847 16.8262 12.9579 16.0968 14.4834C16.0901 14.4959 16.0823 14.5079 16.0736 14.5191C15.0467 15.8464 14.0976 17.2318 13.2309 18.6685V23.1436C13.2309 23.2068 13.2058 23.2673 13.161 23.312C13.1163 23.3567 13.0556 23.3817 12.9923 23.3817" fill="#116149"/>
<path d="M5.21004 25.1206C5.26738 25.6051 5.4947 26.0538 5.85176 26.3872C6.20883 26.7205 6.67259 26.917 7.1609 26.9419C7.21595 26.9447 7.26831 26.9665 7.30907 27.0035C7.34982 27.0406 7.37646 27.0905 7.38448 27.145C7.43776 27.5275 7.62804 27.8778 7.92014 28.1312C8.21223 28.3845 8.58636 28.5238 8.97336 28.5231C9.3614 28.5237 9.73661 28.3845 10.03 28.1311C10.3234 27.8777 10.5153 27.5271 10.5704 27.1437C10.5786 27.0898 10.6051 27.0404 10.6454 27.0037C10.6858 26.9669 10.7376 26.9451 10.7921 26.9419C11.2789 26.9142 11.7406 26.7166 12.0963 26.3837C12.452 26.0508 12.6791 25.6037 12.738 25.1206H5.21004ZM8.97336 29C8.50422 29.0018 8.04838 28.8447 7.68042 28.5542C7.31247 28.2638 7.0542 27.8573 6.94795 27.4012C6.3327 27.3242 5.76675 27.0259 5.35617 26.5622C4.94559 26.0985 4.7186 25.5012 4.71777 24.8824C4.71777 24.8511 4.72398 24.8201 4.73601 24.7912C4.74804 24.7622 4.76565 24.736 4.78788 24.7138C4.8101 24.6917 4.83649 24.6741 4.86551 24.6622C4.89454 24.6503 4.92564 24.6442 4.95703 24.6443H12.9903C13.0536 24.6443 13.1143 24.6694 13.1591 24.714C13.2038 24.7587 13.229 24.8193 13.229 24.8824C13.2267 25.4996 13.0001 26.095 12.5912 26.558C12.1823 27.021 11.6189 27.3202 11.0056 27.4C10.8973 27.8564 10.6375 28.2629 10.2684 28.5533C9.89937 28.8438 9.44276 29.0012 8.97275 29" fill="#116149"/>
<path d="M12.991 23.3811H4.95833C4.92694 23.3812 4.89584 23.3751 4.86681 23.3632C4.83779 23.3512 4.8114 23.3337 4.78918 23.3116C4.76695 23.2895 4.74934 23.2632 4.73731 23.2343C4.72528 23.2053 4.71907 23.1743 4.71907 23.143V18.5916C3.87729 17.1743 2.94318 15.8136 1.92274 14.5184C0.671411 12.9437 -0.00655294 10.9913 4.77461e-05 8.98144C0.00270002 6.60023 0.951736 4.31731 2.63893 2.63353C4.32612 0.949759 6.61368 0.0026469 8.99973 0C11.3858 0.00264659 13.6735 0.949739 15.3608 2.6335C17.0481 4.31725 17.9972 6.60017 18 8.98144C18 9.24582 17.9882 9.51207 17.9662 9.77457C17.961 9.83747 17.9309 9.89573 17.8826 9.93651C17.8344 9.97729 17.7719 9.99728 17.7088 9.99209C17.6458 9.98684 17.5874 9.95683 17.5466 9.90866C17.5057 9.8605 17.4857 9.7981 17.4909 9.7352C17.5122 9.4852 17.5222 9.23519 17.5222 8.98518C17.5207 6.72958 16.6224 4.56675 15.0246 2.97145C13.4268 1.37614 11.2599 0.47872 8.99973 0.476237C6.74041 0.478884 4.57438 1.37577 2.9768 2.97011C1.37922 4.56445 0.480554 6.72606 0.477902 8.98079C0.471595 10.8838 1.11356 12.7324 2.2985 14.2234C3.34525 15.5524 4.30245 16.9492 5.16375 18.4048C5.18561 18.4414 5.19707 18.4834 5.19693 18.526V22.9011H12.7524V18.6016C12.7522 18.5576 12.7641 18.5144 12.7869 18.4767C13.6733 17.003 14.6455 15.5824 15.6984 14.2222C15.7377 14.1726 15.795 14.1406 15.8578 14.1333C15.9206 14.1259 15.9839 14.1437 16.0335 14.1828C16.0832 14.2219 16.1152 14.2792 16.1226 14.3419C16.13 14.4046 16.1122 14.4676 16.073 14.5172C15.0461 15.8445 14.0969 17.23 13.2303 18.6666V23.1418C13.2303 23.2049 13.2051 23.2655 13.1604 23.3101C13.1157 23.3548 13.055 23.3799 12.9917 23.3799" fill="#116149"/>
<path d="M15.8851 14.6097C15.8462 14.6098 15.8079 14.6001 15.7736 14.5816C15.7179 14.5519 15.6762 14.5013 15.6576 14.441C15.6391 14.3807 15.6452 14.3155 15.6747 14.2597C16.3781 12.7817 16.9861 11.2602 17.4946 9.70463C17.5082 9.64293 17.5456 9.58905 17.5987 9.55475C17.6518 9.52045 17.7164 9.50848 17.7784 9.52148C17.8091 9.52801 17.8381 9.54052 17.864 9.5583C17.8898 9.57607 17.9119 9.59875 17.929 9.62505C17.946 9.65135 17.9577 9.68076 17.9633 9.71157C17.969 9.74239 17.9685 9.774 17.9618 9.80462C17.4443 11.4036 16.8213 12.9667 16.0968 14.4835C16.0761 14.5214 16.0456 14.553 16.0085 14.575C15.9713 14.597 15.9289 14.6086 15.8857 14.6085" fill="#116149"/>
<path d="M8.95275 21.1379C8.92137 21.138 8.89026 21.1319 8.86124 21.12C8.83222 21.1081 8.80587 21.0905 8.78365 21.0684C8.76142 21.0463 8.74377 21.02 8.73174 20.9911C8.7197 20.9622 8.7135 20.9311 8.7135 20.8998V10.4852C8.71342 10.4538 8.71955 10.4228 8.73154 10.3937C8.74354 10.3647 8.76118 10.3384 8.78342 10.3162C8.80565 10.294 8.83203 10.2764 8.86109 10.2645C8.89015 10.2525 8.92131 10.2464 8.95275 10.2465C8.98414 10.2465 9.01524 10.2526 9.04423 10.2646C9.07322 10.2766 9.09954 10.2942 9.12171 10.3164C9.14387 10.3386 9.16144 10.3649 9.17339 10.3939C9.18534 10.4229 9.19144 10.4539 9.19136 10.4852V20.8998C9.19136 20.963 9.16623 21.0235 9.12148 21.0682C9.07673 21.1128 9.01604 21.1379 8.95275 21.1379" fill="#116149"/>
<path d="M9.02475 14.8316C8.96406 14.8324 8.90532 14.81 8.86065 14.769L8.78863 14.7016L4.63511 10.6952C4.58953 10.6512 4.56335 10.5909 4.56229 10.5276C4.56123 10.4643 4.58541 10.4032 4.62949 10.3577C4.67357 10.3125 4.73374 10.2864 4.79695 10.2853C4.86017 10.2841 4.92132 10.3079 4.96706 10.3514L9.02161 14.2622L12.9378 10.3546C12.9826 10.3098 13.0434 10.2847 13.1068 10.2847C13.1702 10.2847 13.2311 10.3098 13.2759 10.3546C13.3208 10.3993 13.3459 10.4601 13.3459 10.5233C13.3459 10.5866 13.3208 10.6473 13.2759 10.6921L9.19382 14.7597C9.14894 14.8044 9.08817 14.8296 9.02475 14.8297" fill="#116149"/>
</svg>
