<svg width="14" height="14" viewBox="0 0 14 14" fill="none" xmlns="http://www.w3.org/2000/svg">
<path d="M2.8 7.34999C2.8 6.77009 2.1732 6.29999 1.4 6.29999C0.626801 6.29999 0 6.77009 0 7.34999V12.95C0 13.5299 0.626801 14 1.4 14C2.1732 14 2.8 13.5299 2.8 12.95V7.34999Z" fill="#13AA52"/>
<path d="M6.99998 2.10001C7.37128 2.10001 7.72737 2.21063 7.98993 2.40754C8.25248 2.60446 8.39998 2.87153 8.39998 3.15001V12.95C8.39998 13.2285 8.25248 13.4956 7.98993 13.6925C7.72737 13.8894 7.37128 14 6.99998 14C6.62867 14 6.27258 13.8894 6.01003 13.6925C5.74748 13.4956 5.59998 13.2285 5.59998 12.95V3.15001C5.59998 2.87153 5.74748 2.60446 6.01003 2.40754C6.27258 2.21063 6.62867 2.10001 6.99998 2.10001V2.10001Z" fill="#13AA52"/>
<path d="M14 1.05C14 0.470101 13.3731 0 12.6 0C11.8268 0 11.2 0.470101 11.2 1.05V12.95C11.2 13.5299 11.8268 14 12.6 14C13.3731 14 14 13.5299 14 12.95V1.05Z" fill="#13AA52"/>
</svg>
