<svg width="14" height="15" viewBox="0 0 14 15" fill="none" xmlns="http://www.w3.org/2000/svg">
<path d="M6.10395 1.19308C6.38643 0.269299 7.61333 0.269299 7.89487 1.19308L8.90237 4.49501C8.96393 4.6961 9.08358 4.87132 9.24424 4.99562C9.4049 5.11992 9.59833 5.18694 9.79689 5.18709H13.0567C13.9691 5.18709 14.3476 6.43083 13.6103 7.00255L10.9739 9.04269C10.8129 9.1671 10.693 9.3426 10.6315 9.54405C10.5699 9.7455 10.5698 9.96255 10.6311 10.1641L11.6386 13.466C11.9211 14.3898 10.9277 15.1591 10.1886 14.5874L7.55213 12.5472C7.39131 12.4229 7.19767 12.3559 6.99894 12.3559C6.80021 12.3559 6.60657 12.4229 6.44575 12.5472L3.80929 14.5874C3.07108 15.1591 2.07863 14.3898 2.36017 13.466L3.36768 10.1641C3.42905 9.96255 3.42894 9.7455 3.36736 9.54405C3.30579 9.3426 3.18592 9.1671 3.02494 9.04269L0.389413 7.00356C-0.347855 6.43184 0.0316074 5.1881 0.943071 5.1881H4.20193C4.40065 5.18815 4.5943 5.12123 4.75514 4.99692C4.91599 4.87261 5.03578 4.69727 5.09739 4.49601L6.10489 1.19408L6.10395 1.19308Z" fill="#13AA52"/>
</svg>
